<svg width="46" height="46" viewBox="0 0 46 46" fill="none" xmlns="http://www.w3.org/2000/svg">
<path d="M0 10C0 4.47715 4.47715 0 10 0H36C41.5228 0 46 4.47715 46 10V36C46 41.5228 41.5228 46 36 46H10C4.47715 46 0 41.5228 0 36V10Z" fill="#FEF2F2"/>
<path d="M23 33C24.8565 33 26.637 32.2625 27.9497 30.9497C29.2625 29.637 30 27.8565 30 26C30 24 29 22.1 27 20.5C25 18.9 23.5 16.5 23 14C22.5 16.5 21 18.9 19 20.5C17 22.1 16 24 16 26C16 27.8565 16.7375 29.637 18.0503 30.9497C19.363 32.2625 21.1435 33 23 33Z" stroke="#E7000B" stroke-width="1.66667" stroke-linecap="round" stroke-linejoin="round"/>
</svg>
