<svg width="52" height="52" viewBox="0 0 52 52" fill="none" xmlns="http://www.w3.org/2000/svg">
<path d="M0 10C0 4.47715 4.47715 0 10 0H42C47.5228 0 52 4.47715 52 10V42C52 47.5228 47.5228 52 42 52H10C4.47715 52 0 47.5228 0 42V10Z" fill="#F1FBFE"/>
<path d="M26.0002 38.9167C28.3982 38.9167 30.6979 37.9641 32.3936 36.2684C34.0892 34.5728 35.0418 32.273 35.0418 29.875C35.0418 27.2917 33.7502 24.8375 31.1668 22.7708C28.5835 20.7042 26.646 17.6042 26.0002 14.375C25.3543 17.6042 23.4168 20.7042 20.8335 22.7708C18.2502 24.8375 16.9585 27.2917 16.9585 29.875C16.9585 32.273 17.9111 34.5728 19.6067 36.2684C21.3024 37.9641 23.6022 38.9167 26.0002 38.9167Z" stroke="#0981E8" stroke-width="1.66667" stroke-linecap="round" stroke-linejoin="round"/>
</svg>
