<svg width="44" height="44" viewBox="0 0 44 44" fill="none" xmlns="http://www.w3.org/2000/svg">
<rect y="44" width="44" height="44" rx="22" transform="rotate(-90 0 44)" fill="white"/>
<path d="M20.7867 15.6429L11.4869 24.7479C11.3326 24.8975 11.2102 25.0754 11.1266 25.2714C11.043 25.4674 11 25.6777 11 25.8901C11 26.1024 11.043 26.3127 11.1266 26.5087C11.2102 26.7047 11.3326 26.8827 11.4869 27.0322C11.7953 27.3318 12.2125 27.5 12.6473 27.5C13.0822 27.5 13.4993 27.3318 13.8077 27.0322L22.0377 19.0693L30.1854 27.0322C30.4938 27.3318 30.9109 27.5 31.3458 27.5C31.7806 27.5 32.1978 27.3318 32.5062 27.0322C32.6617 26.8832 32.7855 26.7056 32.8702 26.5095C32.955 26.3134 32.9991 26.1029 33 25.8901C32.9991 25.6772 32.955 25.4667 32.8702 25.2706C32.7855 25.0746 32.6617 24.8969 32.5062 24.7479L23.2063 15.6429C23.0522 15.4796 22.8651 15.3493 22.6569 15.2601C22.4487 15.171 22.2239 15.125 21.9965 15.125C21.7692 15.125 21.5444 15.171 21.3362 15.2601C21.1279 15.3493 20.9409 15.4796 20.7867 15.6429Z" fill="#1A1A1A"/>
</svg>
