<svg width="42" height="42" viewBox="0 0 42 42" fill="none" xmlns="http://www.w3.org/2000/svg">
<rect width="42" height="42" rx="21" transform="matrix(-1 0 0 1 42 0)" fill="#0981E8"/>
<path d="M11.8425 19.1742H25.7575L19.7075 13.1425C19.3623 12.7973 19.1683 12.3291 19.1683 11.8408C19.1683 11.3526 19.3623 10.8844 19.7075 10.5392C20.0527 10.1939 20.5209 10 21.0091 10C21.4974 10 21.9656 10.1939 22.3108 10.5392L31.4775 19.7058C31.6444 19.8802 31.7752 20.0858 31.8625 20.3108C32.0458 20.7572 32.0458 21.2578 31.8625 21.7042C31.7752 21.9292 31.6444 22.1348 31.4775 22.3092L22.3108 31.4758C22.1404 31.6477 21.9376 31.7841 21.7142 31.8771C21.4908 31.9702 21.2512 32.0181 21.0091 32.0181C20.7671 32.0181 20.5275 31.9702 20.3041 31.8771C20.0807 31.7841 19.8779 31.6477 19.7075 31.4758C19.5356 31.3054 19.3993 31.1026 19.3062 30.8792C19.2131 30.6558 19.1652 30.4162 19.1652 30.1742C19.1652 29.9321 19.2131 29.6925 19.3062 29.4691C19.3993 29.2457 19.5356 29.0429 19.7075 28.8725L25.7575 22.8408H11.8425C11.3562 22.8408 10.8899 22.6477 10.5461 22.3039C10.2023 21.96 10.0091 21.4937 10.0091 21.0075C10.0091 20.5213 10.2023 20.055 10.5461 19.7111C10.8899 19.3673 11.3562 19.1742 11.8425 19.1742Z" fill="white"/>
</svg>
