<svg width="46" height="46" viewBox="0 0 46 46" fill="none" xmlns="http://www.w3.org/2000/svg">
<path d="M0 10C0 4.47715 4.47715 0 10 0H36C41.5228 0 46 4.47715 46 10V36C46 41.5228 41.5228 46 36 46H10C4.47715 46 0 41.5228 0 36V10Z" fill="#ECF2FF"/>
<path d="M23 17V23L27 25" stroke="#105EFA" stroke-width="1.66667" stroke-linecap="round" stroke-linejoin="round"/>
<path d="M23 33C28.5228 33 33 28.5228 33 23C33 17.4772 28.5228 13 23 13C17.4772 13 13 17.4772 13 23C13 28.5228 17.4772 33 23 33Z" stroke="#105EFA" stroke-width="1.66667" stroke-linecap="round" stroke-linejoin="round"/>
</svg>
