<svg width="46" height="46" viewBox="0 0 46 46" fill="none" xmlns="http://www.w3.org/2000/svg">
<path d="M0 10C0 4.47715 4.47715 0 10 0H36C41.5228 0 46 4.47715 46 10V36C46 41.5228 41.5228 46 36 46H10C4.47715 46 0 41.5228 0 36V10Z" fill="#F0FDF4"/>
<path d="M31 24C31 29 27.5 31.5 23.34 32.95C23.1222 33.0238 22.8855 33.0203 22.67 32.94C18.5 31.5 15 29 15 24V17C15 16.7348 15.1054 16.4805 15.2929 16.2929C15.4804 16.1054 15.7348 16 16 16C18 16 20.5 14.8 22.24 13.28C22.4519 13.099 22.7214 12.9996 23 12.9996C23.2786 12.9996 23.5481 13.099 23.76 13.28C25.51 14.81 28 16 30 16C30.2652 16 30.5196 16.1054 30.7071 16.2929C30.8946 16.4805 31 16.7348 31 17V24Z" stroke="#00A63E" stroke-width="1.66667" stroke-linecap="round" stroke-linejoin="round"/>
</svg>
