<svg width="42" height="42" viewBox="0 0 42 42" fill="none" xmlns="http://www.w3.org/2000/svg">
<rect width="42" height="42" rx="21" transform="matrix(-1 0 0 1 42 0)" fill="white"/>
<path d="M28.8934 13.8263C28.7582 13.5006 28.4994 13.2418 28.1737 13.1066C28.0135 13.0383 27.8415 13.0021 27.6673 13H14.3404C13.987 13 13.648 13.1404 13.3981 13.3903C13.1481 13.6403 13.0077 13.9792 13.0077 14.3327C13.0077 14.6861 13.1481 15.0251 13.3981 15.275C13.648 15.525 13.987 15.6654 14.3404 15.6654H24.4555L13.3942 26.7134C13.2693 26.8373 13.1702 26.9847 13.1025 27.1471C13.0348 27.3095 13 27.4837 13 27.6596C13 27.8355 13.0348 28.0097 13.1025 28.1721C13.1702 28.3345 13.2693 28.4819 13.3942 28.6058C13.5181 28.7307 13.6655 28.8298 13.8279 28.8975C13.9903 28.9652 14.1645 29 14.3404 29C14.5163 29 14.6905 28.9652 14.8529 28.8975C15.0153 28.8298 15.1627 28.7307 15.2866 28.6058L26.3346 17.5445V27.6596C26.3346 28.013 26.475 28.352 26.725 28.6019C26.9749 28.8519 27.3139 28.9923 27.6673 28.9923C28.0208 28.9923 28.3597 28.8519 28.6097 28.6019C28.8596 28.352 29 28.013 29 27.6596V14.3327C28.9979 14.1585 28.9617 13.9865 28.8934 13.8263Z" fill="#0981E8"/>
</svg>
