<svg width="52" height="52" viewBox="0 0 52 52" fill="none" xmlns="http://www.w3.org/2000/svg">
<path d="M0 10C0 4.47715 4.47715 0 10 0H42C47.5228 0 52 4.47715 52 10V42C52 47.5228 47.5228 52 42 52H10C4.47715 52 0 47.5228 0 42V10Z" fill="#F1FBFE"/>
<path d="M35 26C35 25.4033 34.7629 24.831 34.341 24.409C33.919 23.9871 33.3467 23.75 32.75 23.75H29C29 24.5456 28.6839 25.3087 28.1213 25.8713C27.5587 26.4339 26.7956 26.75 26 26.75C25.2044 26.75 24.4413 26.4339 23.8787 25.8713C23.3161 25.3087 23 24.5456 23 23.75H19.25C18.6533 23.75 18.081 23.9871 17.659 24.409C17.2371 24.831 17 25.4033 17 26M35 26V32C35 32.5967 34.7629 33.169 34.341 33.591C33.919 34.0129 33.3467 34.25 32.75 34.25H19.25C18.6533 34.25 18.081 34.0129 17.659 33.591C17.2371 33.169 17 32.5967 17 32V26M35 26V23M17 26V23M35 23C35 22.4033 34.7629 21.831 34.341 21.409C33.919 20.9871 33.3467 20.75 32.75 20.75H19.25C18.6533 20.75 18.081 20.9871 17.659 21.409C17.2371 21.831 17 22.4033 17 23M35 23V20C35 19.4033 34.7629 18.831 34.341 18.409C33.919 17.9871 33.3467 17.75 32.75 17.75H19.25C18.6533 17.75 18.081 17.9871 17.659 18.409C17.2371 18.831 17 19.4033 17 20V23" stroke="#0981E8" stroke-width="1.5" stroke-linecap="round" stroke-linejoin="round"/>
</svg>
